<?xml version="1.0" encoding="utf-8"?>
<!-- Generator: Adobe Illustrator 16.0.0, SVG Export Plug-In . SVG Version: 6.00 Build 0)  -->
<!DOCTYPE svg PUBLIC "-//W3C//DTD SVG 1.1//EN" "http://www.w3.org/Graphics/SVG/1.1/DTD/svg11.dtd">
<svg version="1.1" id="Layer_1" xmlns="http://www.w3.org/2000/svg" xmlns:xlink="http://www.w3.org/1999/xlink" x="0px" y="0px"
	 width="640px" height="1024px" viewBox="0 0 640 1024" enable-background="new 0 0 640 1024" xml:space="preserve">
<path fill="#FFFFFF" d="M512,192c-71,0-128,57-128,128c0,47,26,88,64,110v18c0,64-64,128-128,128c-53,0-95,11-128,29V302
	c38-22,64-63,64-110c0-71-57-128-128-128S0,121,0,192c0,47,26,88,64,110v419C26,743,0,784,0,831c0,71,57,128,128,128s128-57,128-128
	c0-34-13-64-34-87c19-23,49-41,98-41c128,0,256-128,256-256v-18c38-22,64-63,64-110c0-71-57-128-128-128V192z M128,128
	c35,0,64,29,64,64s-29,64-64,64s-64-29-64-64S93,128,128,128z M128,896c-35,0-64-29-64-64s29-64,64-64s64,29,64,64S163,896,128,896z
	 M512,384c-35,0-64-29-64-64s29-64,64-64s64,29,64,64S547,384,512,384z"/>
</svg>
