<?xml version="1.0" encoding="utf-8"?>
<!-- Generator: Adobe Illustrator 16.0.0, SVG Export Plug-In . SVG Version: 6.00 Build 0)  -->
<!DOCTYPE svg PUBLIC "-//W3C//DTD SVG 1.1//EN" "http://www.w3.org/Graphics/SVG/1.1/DTD/svg11.dtd">
<svg version="1.1" id="Layer_1" xmlns="http://www.w3.org/2000/svg" xmlns:xlink="http://www.w3.org/1999/xlink" x="0px" y="0px"
	 width="327.363px" height="436.222px" viewBox="0 0 327.363 436.222" enable-background="new 0 0 327.363 436.222"
	 xml:space="preserve">
<g>
	<g>
		<path d="M312.292,0H15.07C6.76,0,0,6.76,0,15.069v406.083c0,8.311,6.761,15.069,15.07,15.069h297.223
			c8.312,0,15.07-6.762,15.07-15.069V15.069C327.363,6.759,320.601,0,312.292,0z M52.181,37.624c11.58,0,21,9.422,21,21
			c0,11.58-9.42,21-21,21s-21-9.42-21-21C31.181,47.046,40.601,37.624,52.181,37.624z M52.181,398.598c-11.58,0-21-9.422-21-21
			c0-11.58,9.42-21,21-21s21,9.42,21,21C73.181,389.176,63.761,398.598,52.181,398.598z M186.806,336.939l18.635-53.149
			c1.432-4.095,0.085-8.813-3.615-11.474c-4.503-3.236-10.775-2.209-14.012,2.293l-45.083,62.733
			c-56.865-9.922-100.095-59.526-100.095-119.233c0-66.852,54.193-121.044,121.045-121.044c66.85,0,121.045,54.193,121.045,121.044
			C284.726,277.053,242.593,326.146,186.806,336.939z M275.181,398.598c-11.58,0-21-9.422-21-21c0-11.58,9.42-21,21-21
			s21,9.42,21,21C296.181,389.176,286.761,398.598,275.181,398.598z M275.181,79.624c-11.58,0-21-9.42-21-21c0-11.578,9.42-21,21-21
			s21,9.422,21,21C296.181,70.204,286.761,79.624,275.181,79.624z"/>
		<circle cx="163.681" cy="218.111" r="32.999"/>
	</g>
</g>
</svg>
