<?xml version="1.0" encoding="utf-8"?>
<!-- Generator: Adobe Illustrator 16.0.0, SVG Export Plug-In . SVG Version: 6.00 Build 0)  -->
<!DOCTYPE svg PUBLIC "-//W3C//DTD SVG 1.1//EN" "http://www.w3.org/Graphics/SVG/1.1/DTD/svg11.dtd">
<svg version="1.1" id="Layer_1" xmlns="http://www.w3.org/2000/svg" xmlns:xlink="http://www.w3.org/1999/xlink" x="0px" y="0px"
	 width="507.178px" height="334.021px" viewBox="0 0 507.178 334.021" enable-background="new 0 0 507.178 334.021"
	 xml:space="preserve">
<g>
	<path d="M382.235,333.945c11.279,0,24.521-7.293,29.343-17.236l93.815-177.538c5.613-10.802-2.549-17.239-17.235-17.239H393.42
		V79.511c0-14.641-11.91-26.551-26.551-26.551H134.943L117.736,7.793C115.945,3.103,111.447,0,106.423,0H12.335
		C9.117,0,6.023,1.283,3.747,3.57c-2.27,2.288-3.535,5.379-3.517,8.606l0.23,67.335L0,307.471c0,14.642,11.913,26.552,26.554,26.552
		 M369.209,121.938H162.634c-9.522,0-18.527,7.696-23.291,17.239L54.994,309.811h-28.44c-1.289,0-2.344-1.051-2.344-2.34V79.446
		l-0.012-55.23h73.884l17.209,45.164c1.791,4.69,6.286,7.796,11.31,7.796h240.268c1.289,0,2.34,1.052,2.34,2.341V121.938
		L369.209,121.938z"/>
</g>
</svg>
