<?xml version="1.0" encoding="utf-8"?>
<!-- Generator: Adobe Illustrator 16.0.0, SVG Export Plug-In . SVG Version: 6.00 Build 0)  -->
<!DOCTYPE svg PUBLIC "-//W3C//DTD SVG 1.1//EN" "http://www.w3.org/Graphics/SVG/1.1/DTD/svg11.dtd">
<svg version="1.1" id="Layer_1" xmlns="http://www.w3.org/2000/svg" xmlns:xlink="http://www.w3.org/1999/xlink" x="0px" y="0px"
	 width="113.925px" height="113.923px" viewBox="0 0 113.925 113.923" enable-background="new 0 0 113.925 113.923"
	 xml:space="preserve">
<path id="path28" inkscape:connector-curvature="0" fill="#FFFFFF" d="M111.776,51.887L62.034,2.148
	c-2.862-2.865-7.509-2.865-10.375,0L41.331,12.478l13.102,13.103c3.046-1.028,6.537-0.339,8.964,2.088
	c2.439,2.442,3.124,5.963,2.07,9.02l12.628,12.627c3.055-1.053,6.58-0.373,9.02,2.071c3.41,3.41,3.41,8.933,0,12.345
	c-3.411,3.412-8.937,3.412-12.349,0c-2.564-2.566-3.199-6.334-1.9-9.494L61.089,42.461l-0.001,30.99
	c0.831,0.412,1.616,0.961,2.309,1.65c3.41,3.41,3.41,8.934,0,12.35c-3.41,3.408-8.938,3.408-12.345,0
	c-3.41-3.416-3.41-8.939,0-12.35c0.843-0.84,1.817-1.477,2.858-1.904V41.919c-1.041-0.425-2.015-1.058-2.858-1.905
	c-2.583-2.581-3.205-6.372-1.881-9.544L36.256,17.553L2.149,51.657c-2.866,2.867-2.866,7.513,0,10.378l49.741,49.738
	c2.864,2.865,7.509,2.865,10.376,0l49.51-49.508C114.641,59.398,114.641,54.752,111.776,51.887"/>
</svg>
