<?xml version="1.0" encoding="utf-8"?>
<!-- Generator: Adobe Illustrator 16.0.0, SVG Export Plug-In . SVG Version: 6.00 Build 0)  -->
<!DOCTYPE svg PUBLIC "-//W3C//DTD SVG 1.1//EN" "http://www.w3.org/Graphics/SVG/1.1/DTD/svg11.dtd">
<svg version="1.1" id="Layer_1" xmlns="http://www.w3.org/2000/svg" xmlns:xlink="http://www.w3.org/1999/xlink" x="0px" y="0px"
	 width="780.8px" height="780.8px" viewBox="0 0 780.8 780.8" enable-background="new 0 0 780.8 780.8" xml:space="preserve">
<path fill="#FFFFFF" d="M0,399.671c0-52.053,10.248-102.316,30.744-150.792s48.475-90.28,83.936-125.416
	c35.461-35.461,77.267-63.359,125.416-83.692c48.149-20.333,98.251-30.5,150.305-30.5s102.315,10.167,150.792,30.5
	c48.475,20.333,90.441,48.231,125.902,83.692c35.139,35.136,62.871,76.941,83.205,125.416c20.332,48.475,30.5,98.738,30.5,150.792
	c0,55.957-11.469,109.312-34.404,160.064s-55.145,94.59-96.625,131.516c-41.479,36.926-88.895,63.684-142.252,80.275V633.912
	c0-34.16-13.988-60.838-41.967-80.031c68.646-6.182,118.828-23.588,150.547-52.217c31.723-28.629,47.58-74.014,47.58-136.152
	c0-48.148-14.803-88.653-44.408-121.512c5.857-17.568,8.785-34.485,8.785-50.752c0-24.075-5.529-46.198-16.592-66.368
	c-21.799,0-41.318,3.579-58.561,10.736c-17.242,7.157-38.391,19.52-63.439,37.088c-30.256-6.832-61.488-10.248-93.696-10.248
	c-36.763,0-71.085,3.741-102.968,11.224c-24.4-17.893-45.465-30.5-63.196-37.82c-17.731-7.32-37.82-10.98-60.268-10.98
	c-10.736,20.496-16.104,42.619-16.104,66.368c0,16.917,2.765,33.997,8.296,51.24c-29.605,31.882-44.408,72.224-44.408,121.023
	c0,62.139,15.778,107.36,47.336,135.665c31.557,28.303,82.146,45.709,151.768,52.215c-18.544,12.363-31.395,30.42-38.552,54.168
	c-15.941,5.531-32.533,8.297-49.776,8.297c-13.013,0-24.237-2.928-33.672-8.783c-2.928-1.627-5.612-3.334-8.052-5.123
	c-2.44-1.791-4.961-3.986-7.564-6.59s-4.717-4.637-6.344-6.1c-1.626-1.465-3.741-3.984-6.344-7.562
	c-2.603-3.58-4.311-5.857-5.124-6.832c-0.813-0.979-2.765-3.58-5.856-7.811c-3.091-4.229-4.799-6.506-5.124-6.832
	c-15.291-20.17-33.509-30.256-54.656-30.256c-11.387,0-17.08,2.441-17.08,7.32c0,1.953,2.765,5.205,8.296,9.76
	c10.411,9.109,15.941,13.99,16.592,14.641c7.808,6.182,12.2,10.086,13.176,11.713c9.435,11.713,16.592,24.562,21.472,38.553
	c18.219,40.666,49.451,61,93.696,61c7.157,0,21.146-1.627,41.968-4.881v103.457c-53.354-16.594-100.772-43.354-142.252-80.277
	c-41.48-36.926-73.688-80.764-96.624-131.516S0,455.628,0,399.671L0,399.671z"/>
</svg>
